PathFileType	4	(X/Y/Z)	./resultDataOpenSim/trcMotMarkerGrf/sub10/qtm-02-02.trc
DataRate	CameraRate	NumFrames	NumMarkers	Units	OrigDataRate	OrigDataStartFrame	OrigNumFrames
250.000000	250.000000	8	24	m	250.000000	246	491
Frame#	Time	L.Toe.Tip			R.Toe.Tip			L.Ankle.Lat			R.Ankle.Lat			L.Ankle.Med			R.Ankle.Med			L.Heel			R.Heel			L.Knee.Lat			R.Knee.Lat			L.Knee.Med			R.Knee.Med			L.Thigh.Upper			R.Thigh.Upper			L.ASIS			R.ASIS			V.Sacral			L.Acromium			R.Acromium			C7			L.Elbow			R.Elbow			L.Wrist.Lat			R.Wrist.Lat
		X1	Y1	Z1	X2	Y2	Z2	X3	Y3	Z3	X4	Y4	Z4	X5	Y5	Z5	X6	Y6	Z6	X7	Y7	Z7	X8	Y8	Z8	X9	Y9	Z9	X10	Y10	Z10	X11	Y11	Z11	X12	Y12	Z12	X13	Y13	Z13	X14	Y14	Z14	X15	Y15	Z15	X16	Y16	Z16	X17	Y17	Z17	X18	Y18	Z18	X19	Y19	Z19	X20	Y20	Z20	X21	Y21	Z21	X22	Y22	Z22	X23	Y23	Z23	X24	Y24	Z24

246	0.98	0.016157395	0.016982292	-0.12296276	0.24743469	0.072576658	0.0089334985	-0.11807858	0.046823255	-0.15518285	0.10959346	0.107997	-0.0031377058	-0.10921046	0.074955028	-0.073625411	0.16095342	0.12837798	-0.073912692	-0.18483718	0.023874215	-0.11127898	0.076153741	0.085464256	-0.065299055	-0.038546335	0.42488902	-0.21081594	0.21574478	0.48654036	0.043967955	-0.039268643	0.40968515	-0.087702042	0.25974236	0.50088948	-0.077542846	0.022896542	0.81491092	-0.28901058	0.027683207	0.84508356	0.089047115	0.080240448	0.92837076	-0.22866146	0.09004507	0.93606784	0.014025482	-0.12459965	0.95207976	-0.080025094	0.027171586	1.4182651	-0.22880973	0.0013902056	1.3818408	0.094584312	-0.069037515	1.4277381	-0.076575052	-0.029355073	1.0802262	-0.3167146	-0.099278188	1.0446732	0.09159792	0.14381167	0.90577495	-0.33654829	0.022635532	0.83499218	0.14598778
247	0.984	0.016192391	0.017002516	-0.12309429	0.26685155	0.072869081	0.0095428583	-0.11811133	0.04719579	-0.15496229	0.12827946	0.10476113	-0.0031674555	-0.10883424	0.075362247	-0.073458555	0.17938856	0.12664421	-0.073744634	-0.18471903	0.024407211	-0.11080173	0.095745826	0.0815256	-0.065692158	-0.038469567	0.42525419	-0.21091917	0.223762	0.48723522	0.043886447	-0.038494888	0.40961958	-0.087658032	0.26687201	0.50194153	-0.07769123	0.02608311	0.81465288	-0.28901693	0.03424327	0.84543503	0.089144681	0.084591632	0.92775655	-0.22899092	0.096208408	0.93593328	0.013836667	-0.1195132	0.95209277	-0.078682969	0.032962469	1.4179746	-0.22895046	0.0068540346	1.3817672	0.094444981	-0.063646087	1.4276505	-0.077175382	-0.021632442	1.0793754	-0.31666452	-0.095903038	1.0452325	0.092025874	0.1536124	0.90674313	-0.33545041	0.025213972	0.83509745	0.1471276
248	0.988	0.016207539	0.017027851	-0.12319039	0.28617988	0.07317449	0.010097369	-0.11810133	0.047551879	-0.15475129	0.14702112	0.10163152	-0.0034243872	-0.10846085	0.075775343	-0.073278514	0.19785065	0.12511752	-0.073624702	-0.18459927	0.024950116	-0.11028876	0.11540109	0.077868268	-0.066186858	-0.038317794	0.4256142	-0.21098617	0.23166991	0.48775316	0.043859949	-0.037549065	0.40962345	-0.087759144	0.2738621	0.50279353	-0.07776688	0.029443293	0.81437274	-0.28888506	0.040808439	0.84568271	0.089227157	0.08886693	0.92710678	-0.2293246	0.10240573	0.93573887	0.013667565	-0.11445063	0.9520472	-0.077311733	0.038745169	1.4176094	-0.22909653	0.012343931	1.3816338	0.094308354	-0.058339876	1.4275945	-0.077768202	-0.013853436	1.0784728	-0.31670035	-0.092489474	1.0457507	0.092509225	0.16334404	0.90765997	-0.33434842	0.027689192	0.8351452	0.14820127
249	0.992	0.016202042	0.017036166	-0.12320404	0.30541301	0.073472474	0.010584675	-0.1180055	0.047884332	-0.15459213	0.16578131	0.098673386	-0.0039982469	-0.10808865	0.076189325	-0.073072384	0.21632391	0.12380448	-0.073545774	-0.18447803	0.025500415	-0.10973661	0.1350775	0.074512466	-0.066755523	-0.038065442	0.42595211	-0.21101703	0.23947313	0.48810267	0.043899894	-0.036474589	0.40969989	-0.087913582	0.28072051	0.50344188	-0.07775894	0.032884479	0.81408052	-0.2887197	0.047394766	0.84582283	0.089310607	0.093133948	0.92643384	-0.22963393	0.10863619	0.93548291	0.01351328	-0.10938301	0.95194575	-0.075942223	0.044520609	1.4171742	-0.2292376	0.017853327	1.3814421	0.094173541	-0.053051159	1.4275329	-0.078276363	-0.0059430906	1.0775844	-0.31690633	-0.089015687	1.0462276	0.093056495	0.17302234	0.90852861	-0.33323734	0.030139174	0.8351489	0.14924579
250	0.996	0.016211161	0.017013925	-0.12314668	0.324561	0.073740766	0.010982731	-0.11785421	0.048208166	-0.15447581	0.18453695	0.095961451	-0.004751628	-0.10770044	0.076587616	-0.072830399	0.23478256	0.12268577	-0.073498825	-0.18434412	0.026061928	-0.10912854	0.15473328	0.071471314	-0.067366961	-0.037684726	0.42625571	-0.21101149	0.24714896	0.48828853	0.044024958	-0.035299231	0.40982373	-0.088060415	0.28746665	0.50388156	-0.07765614	0.036292247	0.81378188	-0.28861348	0.0540069	0.84586105	0.089405913	0.097484273	0.9257572	-0.22987451	0.11489388	0.93515987	0.013371326	-0.10429476	0.95178588	-0.074587561	0.050288526	1.4166662	-0.22937314	0.023369838	1.3811907	0.094036489	-0.047692589	1.4273785	-0.078673686	0.0020406626	1.0767331	-0.31713776	-0.085473641	1.0466591	0.093638194	0.18266583	0.9093542	-0.33211104	0.032613544	0.83511304	0.15028684
251	1	0.016287574	0.016977882	-0.12313153	0.34363567	0.073972737	0.011266675	-0.11772378	0.048552468	-0.15434824	0.20328569	0.093526678	-0.0054604006	-0.10727984	0.076950223	-0.072557654	0.25318902	0.12174928	-0.073475079	-0.18418224	0.026636882	-0.10845226	0.17432385	0.068759319	-0.067992839	-0.037145928	0.42651702	-0.21096708	0.25468257	0.48828794	0.044264084	-0.034010415	0.40996134	-0.088189145	0.29412333	0.50410714	-0.077452301	0.039620471	0.81348108	-0.28859158	0.060633289	0.84580295	0.089509675	0.10194477	0.92509008	-0.23001747	0.12116938	0.93476458	0.013240851	-0.099199006	0.95157697	-0.073237777	0.056052512	1.4160749	-0.22951448	0.02888713	1.3808807	0.093899169	-0.04222174	1.4270847	-0.078974785	0.0099660009	1.0758819	-0.3171697	-0.081871912	1.0470416	0.09423035	0.19228043	0.91014001	-0.3309667	0.035121308	0.83503682	0.15133578
252	1.004	0.016442618	0.016963001	-0.12326411	0.36263944	0.074182756	0.01141978	-0.11765215	0.04891813	-0.15414897	0.22199322	0.091358287	-0.0059735994	-0.10682371	0.077268879	-0.072272486	0.27150129	0.12099769	-0.073464108	-0.18399757	0.027219008	-0.10773502	0.19381018	0.066387873	-0.06861117	-0.036426191	0.42673067	-0.21088025	0.26206904	0.48806751	0.044626947	-0.032579129	0.41006465	-0.088269958	0.30070865	0.50411675	-0.077149601	0.042872336	0.81317958	-0.28864391	0.067249391	0.84564196	0.089604524	0.10649523	0.92444587	-0.2300551	0.12745448	0.93429475	0.013118133	-0.094104843	0.95132392	-0.071886191	0.06182215	1.4153998	-0.22967762	0.034410524	1.3805133	0.093766228	-0.036665779	1.4266741	-0.079220658	0.017842741	1.0750257	-0.3170284	-0.078241646	1.0473774	0.094830064	0.20186919	0.91088907	-0.32980135	0.037651278	0.83492017	0.15239168
253	1.008	0.016623098	0.01697714	-0.12349795	0.38156584	0.074393128	0.011431111	-0.11762127	0.049279929	-0.15384361	0.24057639	0.089441163	-0.0062574587	-0.10633969	0.0775543	-0.071986136	0.28968487	0.120434	-0.073450783	-0.18381545	0.027798676	-0.10702771	0.21316289	0.06435307	-0.069198216	-0.035513476	0.42689796	-0.21074738	0.26929934	0.4876254	0.045086865	-0.030990942	0.41007074	-0.0882325	0.30723104	0.5039141	-0.076763939	0.046053202	0.812869	-0.28876165	0.073833077	0.84536518	0.089673663	0.11108482	0.92382721	-0.23001997	0.1337488	0.93375051	0.012997425	-0.088989146	0.95101238	-0.070547004	0.067596613	1.4146565	-0.22986632	0.039946316	1.3800865	0.09363686	-0.031077073	1.4261892	-0.079448579	0.025815124	1.0742372	-0.31684805	-0.074634926	1.0476756	0.095450021	0.21144848	0.91160697	-0.32860296	0.040196377	0.83476453	0.15345075
